<?xml version="1.0" encoding="iso-8859-1"?>
<!-- Generator: Adobe Illustrator 17.1.0, SVG Export Plug-In . SVG Version: 6.00 Build 0)  -->
<!DOCTYPE svg PUBLIC "-//W3C//DTD SVG 1.1//EN" "http://www.w3.org/Graphics/SVG/1.1/DTD/svg11.dtd">
<svg version="1.1" id="Capa_1" xmlns="http://www.w3.org/2000/svg" xmlns:xlink="http://www.w3.org/1999/xlink" x="0px" y="0px"
	 viewBox="0 0 487.886 487.886" style="enable-background:new 0 0 487.886 487.886;" xml:space="preserve">
<path d="M411.847,0H54.765c-2.762,0-5,2.239-5,5v432.941v44.945c0,2.761,2.238,5,5,5h357.082c14.487,0,26.273-11.786,26.273-26.273
	v-44.945V26.273C438.121,11.786,426.334,0,411.847,0z M59.765,10h352.082c8.974,0,16.273,7.3,16.273,16.273v390.395
	c0,8.973-7.3,16.273-16.273,16.273H59.765V10z M411.847,477.886H59.765v-34.945h352.082c6.142,0,11.795-2.125,16.273-5.669v24.341
	C428.121,470.586,420.821,477.886,411.847,477.886z M113.84,392.485v13.538c0,2.761-2.238,5-5,5s-5-2.239-5-5v-13.538
	c0-2.761,2.238-5,5-5S113.84,389.724,113.84,392.485z M113.84,30.464v324.77c0,2.761-2.238,5-5,5s-5-2.239-5-5V30.464
	c0-2.761,2.238-5,5-5S113.84,27.703,113.84,30.464z M398.91,452.805c0,2.761-2.238,5-5,5H84.376c-2.762,0-5-2.239-5-5s2.238-5,5-5
	H393.91C396.671,447.805,398.91,450.044,398.91,452.805z M398.91,468.643c0,2.761-2.238,5-5,5H84.376c-2.762,0-5-2.239-5-5
	s2.238-5,5-5H393.91C396.671,463.643,398.91,465.881,398.91,468.643z M373.898,221.625c6.487-9.546,9.917-20.711,9.917-32.289
	c0-31.712-25.801-57.513-57.514-57.513c-23.364,0-43.521,14.006-52.513,34.062c-8.992-20.056-29.148-34.062-52.514-34.062
	c-10.606,0-20.542,2.897-29.081,7.925l-6.073-6.073l5.871-1.025c2.128-0.371,3.776-2.067,4.088-4.205
	c0.311-2.138-0.786-4.234-2.721-5.196l-36.062-17.949c-1.927-0.959-4.248-0.578-5.768,0.945c-1.519,1.522-1.894,3.846-0.931,5.77
	l18.02,35.991c0.855,1.71,2.598,2.762,4.469,2.762c0.241,0,0.484-0.017,0.728-0.053c2.136-0.313,3.829-1.961,4.2-4.087l1.028-5.887
	l4.901,4.9c-12.338,10.557-20.181,26.224-20.181,43.697c0,11.578,3.429,22.743,9.917,32.289
	c3.686,5.424,81.102,82.505,96.584,97.902c0.975,0.97,2.25,1.455,3.525,1.455s2.551-0.485,3.525-1.455
	c6.273-6.238,22.712-22.602,40.294-40.222l12.963,12.963v17.969c0,2.761,2.238,5,5,5s5-2.239,5-5v-7.969l4.824,4.824v17.969
	c0,2.761,2.238,5,5,5s5-2.239,5-5v-15.04h15.04c2.762,0,5-2.239,5-5s-2.238-5-5-5h-17.969l-4.824-4.824h7.97c2.762,0,5-2.239,5-5
	s-2.238-5-5-5h-17.97l-12.973-12.973C348.337,248.459,371.904,224.558,373.898,221.625z M166.242,120.921l9.033,4.496l-0.364,0.063
	c-2.076,0.362-3.702,1.989-4.065,4.065l-0.073,0.422L166.242,120.921z M273.789,308.928c-36.463-36.29-88.646-88.624-91.839-92.925
	c-5.356-7.881-8.188-17.102-8.188-26.667c0-14.717,6.726-27.891,17.265-36.613l72.036,72.036c-1.461-0.244-2.793-0.952-3.817-2.055
	c-1.878-2.025-5.042-2.143-7.066-0.267c-2.025,1.877-2.145,5.041-0.268,7.066c3.039,3.277,7.172,5.175,11.639,5.344
	c0.217,0.008,0.432,0.012,0.647,0.012c4.229,0,8.242-1.571,11.36-4.462c0.026-0.024,0.047-0.051,0.073-0.074
	c0.011-0.011,0.025-0.018,0.036-0.029c0.014-0.014,0.022-0.03,0.036-0.044c3.184-3.025,5.034-7.094,5.2-11.49
	c0.169-4.466-1.412-8.731-4.45-12.008c-1.878-2.025-5.042-2.143-7.066-0.267c-2.025,1.877-2.145,5.041-0.268,7.066
	c1.223,1.319,1.859,3.035,1.791,4.832c-0.001,0.026-0.005,0.052-0.007,0.078l-71.355-71.355c6.516-3.366,13.9-5.28,21.726-5.28
	c26.199,0,47.514,21.314,47.514,47.513c0,2.761,2.238,5,5,5s5-2.239,5-5c0-26.199,21.314-47.513,47.513-47.513
	c26.199,0,47.514,21.314,47.514,47.513c0,9.564-2.831,18.786-8.154,26.619c-2.123,2.863-25.463,26.521-51.567,52.706
	c-0.01,0.01-0.022,0.016-0.032,0.026c-0.01,0.01-0.017,0.023-0.027,0.033C300.502,282.295,286.23,296.545,273.789,308.928z
	 M321.301,153.597c0-2.761,2.238-5,5-5c22.464,0,40.739,18.275,40.739,40.739c0,2.761-2.238,5-5,5s-5-2.239-5-5
	c0-16.949-13.79-30.739-30.739-30.739C323.54,158.597,321.301,156.358,321.301,153.597z M373.97,321.525
	c1.953,1.953,1.953,5.119,0,7.071c-0.976,0.976-2.256,1.464-3.535,1.464s-2.56-0.488-3.535-1.464l-7.55-7.55
	c-1.953-1.953-1.953-5.119,0-7.071c1.951-1.952,5.119-1.952,7.07,0L373.97,321.525z"/>
<g>
</g>
<g>
</g>
<g>
</g>
<g>
</g>
<g>
</g>
<g>
</g>
<g>
</g>
<g>
</g>
<g>
</g>
<g>
</g>
<g>
</g>
<g>
</g>
<g>
</g>
<g>
</g>
<g>
</g>
</svg>
